<svg xmlns="http://www.w3.org/2000/svg" width="537" height="137" fill="none" viewBox="0 0 537 137"><path fill="#fff" d="M39.72 90C38.72 90 37.84 89.64 37.08 88.92C36.36 88.16 36 87.28 36 86.28V50.04C36 49 36.36 48.12 37.08 47.4C37.8 46.64 38.7 46.26 39.78 46.26C40.82 46.26 41.72 46.68 42.48 47.52L58.2 64.62L73.86 47.52C74.62 46.68 75.52 46.26 76.56 46.26C77.64 46.26 78.54 46.64 79.26 47.4C79.98 48.12 80.34 49 80.34 50.04V86.28C80.34 87.28 79.98 88.16 79.26 88.92C78.54 89.64 77.66 90 76.62 90C75.58 90 74.7 89.64 73.98 88.92C73.26 88.2 72.9 87.32 72.9 86.28V59.52L60.96 72.66C60.2 73.5 59.28 73.92 58.2 73.92C57.08 73.92 56.16 73.5 55.44 72.66L43.44 59.52V86.28C43.44 87.32 43.08 88.2 42.36 88.92C41.64 89.64 40.76 90 39.72 90ZM112.364 90.96C108.204 90.96 104.764 90.04 102.044 88.2C99.3236 86.32 97.3236 84.04 96.0436 81.36C94.8036 78.64 94.1836 75.96 94.1836 73.32V49.86C94.1836 48.86 94.5236 48.02 95.2036 47.34C95.9236 46.62 96.7836 46.26 97.7836 46.26C98.7836 46.26 99.6436 46.62 100.364 47.34C101.084 48.02 101.444 48.86 101.444 49.86V73.26C101.444 74.66 101.744 76.16 102.344 77.76C102.984 79.36 104.104 80.76 105.704 81.96C107.344 83.12 109.564 83.7 112.364 83.7C115.044 83.7 117.164 83.14 118.724 82.02C120.324 80.9 121.444 79.56 122.084 78C122.724 76.4 123.044 74.84 123.044 73.32V49.86C123.044 48.86 123.404 48.02 124.124 47.34C124.844 46.62 125.704 46.26 126.704 46.26C127.704 46.26 128.544 46.62 129.224 47.34C129.944 48.02 130.304 48.86 130.304 49.86V73.32C130.304 76.24 129.624 79.06 128.264 81.78C126.944 84.46 124.924 86.66 122.204 88.38C119.524 90.1 116.244 90.96 112.364 90.96ZM164.145 90.96C161.265 90.96 158.425 90.54 155.625 89.7C152.825 88.86 150.385 87.6 148.305 85.92C146.225 84.24 144.865 82.2 144.225 79.8C144.145 79.4 144.105 79.1 144.105 78.9C144.105 77.9 144.445 77.04 145.125 76.32C145.845 75.6 146.725 75.24 147.765 75.24C148.565 75.24 149.285 75.5 149.925 76.02C150.605 76.5 151.045 77.14 151.245 77.94C151.485 78.86 152.185 79.78 153.345 80.7C154.545 81.58 156.085 82.3 157.965 82.86C159.845 83.42 161.905 83.7 164.145 83.7C167.145 83.7 169.885 83.22 172.365 82.26C174.845 81.3 176.085 79.74 176.085 77.58C176.085 76.1 175.545 74.92 174.465 74.04C173.385 73.16 172.045 72.5 170.445 72.06C168.885 71.58 166.685 71.06 163.845 70.5C160.165 69.78 157.165 69.04 154.845 68.28C152.565 67.52 150.605 66.3 148.965 64.62C147.365 62.94 146.565 60.66 146.565 57.78C146.565 55.02 147.365 52.7 148.965 50.82C150.605 48.9 152.765 47.48 155.445 46.56C158.125 45.64 161.025 45.18 164.145 45.18C168.345 45.18 172.065 46.02 175.305 47.7C178.585 49.38 180.805 51.58 181.965 54.3C182.165 54.82 182.265 55.3 182.265 55.74C182.265 56.42 182.065 57.08 181.665 57.72C181.265 58.32 180.725 58.76 180.045 59.04C179.525 59.24 179.065 59.34 178.665 59.34C177.945 59.34 177.285 59.14 176.685 58.74C176.085 58.3 175.625 57.74 175.305 57.06C174.665 55.62 173.205 54.5 170.925 53.7C168.685 52.86 166.425 52.44 164.145 52.44C161.385 52.44 158.965 52.86 156.885 53.7C154.845 54.54 153.825 55.9 153.825 57.78C153.825 58.9 154.305 59.82 155.265 60.54C156.225 61.26 157.445 61.84 158.925 62.28C160.405 62.68 162.425 63.14 164.985 63.66C168.825 64.46 171.965 65.28 174.405 66.12C176.845 66.92 178.945 68.22 180.705 70.02C182.465 71.78 183.345 74.14 183.345 77.1C183.345 80.14 182.465 82.7 180.705 84.78C178.985 86.86 176.665 88.42 173.745 89.46C170.865 90.46 167.665 90.96 164.145 90.96ZM200.733 90C199.733 90 198.873 89.66 198.153 88.98C197.473 88.26 197.133 87.4 197.133 86.4V49.92C197.133 48.92 197.473 48.08 198.153 47.4C198.873 46.68 199.733 46.32 200.733 46.32C201.733 46.32 202.593 46.68 203.313 47.4C204.033 48.08 204.393 48.92 204.393 49.92V86.4C204.393 87.4 204.033 88.26 203.313 88.98C202.593 89.66 201.733 90 200.733 90ZM238.578 90.96C234.418 90.96 230.538 89.96 226.938 87.96C223.378 85.92 220.538 83.16 218.418 79.68C216.298 76.16 215.238 72.28 215.238 68.04C215.238 63.96 216.258 60.18 218.298 56.7C220.338 53.18 223.138 50.38 226.698 48.3C230.298 46.22 234.258 45.18 238.578 45.18C240.898 45.18 243.158 45.52 245.358 46.2C247.598 46.84 249.678 47.78 251.598 49.02C252.118 49.38 252.518 49.82 252.798 50.34C253.078 50.86 253.218 51.42 253.218 52.02C253.218 52.82 253.018 53.5 252.618 54.06C252.258 54.58 251.798 54.98 251.238 55.26C250.718 55.54 250.158 55.68 249.558 55.68C248.758 55.68 248.098 55.48 247.578 55.08C244.858 53.28 241.858 52.38 238.578 52.38C235.698 52.38 233.018 53.08 230.538 54.48C228.058 55.88 226.078 57.78 224.598 60.18C223.158 62.58 222.438 65.2 222.438 68.04C222.438 70.84 223.158 73.44 224.598 75.84C226.038 78.24 227.998 80.16 230.478 81.6C232.958 83 235.658 83.7 238.578 83.7C241.978 83.7 245.038 82.76 247.758 80.88C248.318 80.48 248.998 80.28 249.798 80.28C250.398 80.28 250.958 80.42 251.478 80.7C252.038 80.94 252.478 81.32 252.798 81.84C253.238 82.52 253.458 83.2 253.458 83.88C253.458 84.44 253.318 85 253.038 85.56C252.758 86.08 252.358 86.52 251.838 86.88C249.918 88.24 247.818 89.26 245.538 89.94C243.298 90.62 240.978 90.96 238.578 90.96ZM266.261 89.58C265.661 89.3 265.181 88.86 264.821 88.26C264.461 87.66 264.281 87.04 264.281 86.4C264.281 85.8 264.421 85.24 264.701 84.72L283.541 48.3C283.861 47.7 284.301 47.22 284.861 46.86C285.461 46.5 286.101 46.32 286.781 46.32C287.461 46.32 288.081 46.5 288.641 46.86C289.241 47.22 289.681 47.7 289.961 48.3L308.861 84.72C309.101 85.24 309.221 85.78 309.221 86.34C309.221 87.02 309.041 87.66 308.681 88.26C308.361 88.82 307.901 89.26 307.301 89.58C306.781 89.86 306.221 90 305.621 90C304.981 90 304.361 89.82 303.761 89.46C303.161 89.1 302.701 88.62 302.381 88.02L297.941 79.38H275.561L271.121 88.02C270.841 88.62 270.401 89.1 269.801 89.46C269.201 89.82 268.581 90 267.941 90C267.341 90 266.781 89.86 266.261 89.58ZM294.161 72.12L286.781 57.84L279.401 72.12H294.161ZM323.663 90C322.663 90 321.803 89.66 321.083 88.98C320.403 88.26 320.063 87.4 320.063 86.4V49.92C320.063 48.92 320.403 48.08 321.083 47.4C321.803 46.68 322.663 46.32 323.663 46.32C324.663 46.32 325.523 46.68 326.243 47.4C326.963 48.08 327.323 48.92 327.323 49.92V82.74H351.863C352.903 82.74 353.763 83.1 354.443 83.82C355.163 84.5 355.523 85.36 355.523 86.4C355.523 87.4 355.163 88.26 354.443 88.98C353.723 89.66 352.863 90 351.863 90H323.663ZM395.147 90C394.147 90 393.287 89.66 392.567 88.98C391.887 88.26 391.547 87.4 391.547 86.4V49.92C391.547 48.92 391.887 48.08 392.567 47.4C393.287 46.68 394.147 46.32 395.147 46.32C396.147 46.32 397.007 46.68 397.727 47.4C398.447 48.08 398.807 48.92 398.807 49.92V86.4C398.807 87.4 398.447 88.26 397.727 88.98C397.007 89.66 396.147 90 395.147 90ZM416.301 90C415.301 90 414.441 89.66 413.721 88.98C413.001 88.26 412.641 87.4 412.641 86.4C412.641 85.36 412.981 84.5 413.661 83.82C414.381 83.1 415.281 82.74 416.361 82.74H432.381C435.021 82.74 437.301 82.1 439.221 80.82C441.181 79.54 442.681 77.8 443.721 75.6C444.761 73.36 445.281 70.84 445.281 68.04C445.281 64.44 444.561 61.56 443.121 59.4C441.681 57.24 439.961 55.74 437.961 54.9C436.001 54.02 434.141 53.58 432.381 53.58H416.361C415.281 53.58 414.381 53.24 413.661 52.56C412.981 51.84 412.641 50.96 412.641 49.92C412.641 48.92 413.001 48.08 413.721 47.4C414.441 46.68 415.301 46.32 416.301 46.32H432.381C435.381 46.32 438.421 47.08 441.501 48.6C444.621 50.08 447.241 52.46 449.361 55.74C451.481 58.98 452.541 63.08 452.541 68.04C452.541 72.16 451.681 75.9 449.961 79.26C448.281 82.58 445.901 85.2 442.821 87.12C439.781 89.04 436.301 90 432.381 90H416.301ZM468.215 90C467.215 90 466.355 89.66 465.635 88.98C464.915 88.26 464.555 87.4 464.555 86.4V70.32C464.555 69.24 464.895 68.36 465.575 67.68C466.295 66.96 467.195 66.6 468.275 66.6H488.495C489.495 66.6 490.335 66.96 491.015 67.68C491.735 68.4 492.095 69.26 492.095 70.26C492.095 71.26 491.735 72.12 491.015 72.84C490.335 73.52 489.495 73.86 488.495 73.86H471.815V82.74H496.415C497.415 82.74 498.255 83.1 498.935 83.82C499.655 84.54 500.015 85.4 500.015 86.4C500.015 87.4 499.655 88.26 498.935 88.98C498.255 89.66 497.415 90 496.415 90H468.215ZM464.555 49.92C464.555 48.92 464.915 48.08 465.635 47.4C466.355 46.68 467.215 46.32 468.215 46.32H496.415C497.415 46.32 498.255 46.68 498.935 47.4C499.655 48.08 500.015 48.92 500.015 49.92C500.015 50.92 499.655 51.78 498.935 52.5C498.255 53.22 497.415 53.58 496.415 53.58H468.275C467.195 53.58 466.295 53.24 465.575 52.56C464.895 51.84 464.555 50.96 464.555 49.92Z"/></svg>