<svg xmlns="http://www.w3.org/2000/svg" width="173" height="165" fill="none" viewBox="0 0 173 165"><g clip-path="url(#clip0)"><g opacity=".1"><path stroke="#fff" d="M78.6053 62.5439L56.5703 42.4933C55.0103 40.9802 47.1456 33.7922 39.2809 40.98C31.4157 48.1682 39.2805 55.3561 41.9024 57.7518L73.3623 86.5034C81.2271 93.6912 91.7138 93.6912 99.5792 86.5034C112.947 74.2869 124.697 62.9855 131.039 57.7518C133.943 55.3561 141.525 48.168 133.661 40.9801C125.796 33.7922 117.93 40.9801 115.309 43.376L94.3356 62.5439"/></g><path stroke="#fff" d="M78.6053 71.8105L56.5703 51.76C55.0103 50.2469 47.1456 43.0589 39.2809 50.2467C31.4157 57.4349 39.2805 64.6228 41.9024 67.0185L73.3623 95.7701C81.2271 102.958 91.7138 102.958 99.5792 95.7701C112.947 83.5536 124.697 72.2522 131.039 67.0185C133.943 64.6228 141.525 57.4347 133.661 50.2467C125.796 43.0589 117.93 50.2467 115.309 52.6427L94.3356 71.8105"/></g><defs><clipPath id="clip0"><rect width="173" height="165" fill="#fff"/></clipPath></defs></svg>